<?xml version="1.0" encoding="UTF-8"?>
<svg id="uuid-471d000b-1460-442d-b8f5-7c16b863794b" data-name="Layer 2" xmlns="http://www.w3.org/2000/svg" viewBox="0 0 751.34 468.27">
  <defs>
    <style>
      .uuid-33a70afa-f210-4aa5-a7aa-6ddf02d57528 {
        fill: #fff;
      }
    </style>
  </defs>
  <g id="uuid-977df5eb-744c-4290-a0ce-745d4a11b5c9" data-name="Layer 1">
    <g>
      <path class="uuid-33a70afa-f210-4aa5-a7aa-6ddf02d57528" d="M203.35,236.12V122.8l-46.57,77.88h-37.5l-46.57-77.88v113.32H2.67V2.06H79.32l58.93,103.02L197.17,2.06h76.23V236.12h-70.05Z"/>
      <path class="uuid-33a70afa-f210-4aa5-a7aa-6ddf02d57528" d="M464.12,83.24c-1.1-.82-5.09-2.95-11.95-6.39-6.87-3.43-15.18-6.73-24.93-9.89-9.76-3.16-19.57-4.74-29.46-4.74-6.05,0-10.86,.48-14.42,1.44-3.57,.97-5.36,2.82-5.36,5.56,0,3.3,1.85,5.91,5.56,7.83,3.71,1.93,9.07,3.78,16.07,5.56,7.01,1.79,15.31,4.19,24.93,7.21,15.66,4.4,29.19,9.48,40.59,15.25,11.4,5.77,20.19,13.19,26.37,22.25,6.18,9.07,9.27,21.02,9.27,35.85s-2.75,26.72-8.24,36.47c-5.5,9.76-12.92,17.58-22.25,23.49-9.34,5.91-19.72,10.1-31.11,12.57-11.4,2.47-23.01,3.71-34.82,3.71-18.41,0-37.57-2.54-57.49-7.62-19.92-5.08-37.44-11.47-52.54-19.16l30.49-61.4c1.65,1.65,6.39,4.47,14.22,8.45,7.83,3.99,17.65,7.69,29.46,11.13,11.81,3.44,24.17,5.15,37.09,5.15,7.14,0,12.16-.62,15.04-1.85s4.33-2.68,4.33-4.33c0-3.84-2.54-6.8-7.62-8.86-5.09-2.06-11.81-4.12-20.19-6.18-8.38-2.06-17.65-4.6-27.82-7.62-14.83-4.67-26.93-10.02-36.26-16.07-9.34-6.04-16.28-13.32-20.81-21.84-4.53-8.51-6.8-18.68-6.8-30.49,0-17.03,4.39-31.38,13.19-43.06,8.79-11.67,20.4-20.53,34.82-26.58,14.42-6.04,29.88-9.07,46.36-9.07,18.4,0,35.92,2.88,52.54,8.65,16.62,5.77,30.56,11.27,41.83,16.48l-30.08,58.1Z"/>
      <path class="uuid-33a70afa-f210-4aa5-a7aa-6ddf02d57528" d="M497.08,236.12L595.98,2.06h56.87l98.49,234.06h-74.17l-14.83-42.03h-75.84l-14.83,42.03h-74.59Zm127.33-149.58l-16.42,46.57h32.84l-16.42-46.57Z"/>
    </g>
    <g>
      <g>
        <path class="uuid-33a70afa-f210-4aa5-a7aa-6ddf02d57528" d="M47.16,371.13v-30.15l-9.59,21.2h-8.38l-9.59-21.2v30.15H3.87v-57.24H21.04l12.33,26.92,12.41-26.92h17.09v57.24h-15.72Z"/>
        <path class="uuid-33a70afa-f210-4aa5-a7aa-6ddf02d57528" d="M85.93,313.9h17.57l18.22,57.24h-15.96l-2.96-11.21h-16.17l-2.96,11.21h-16.04l18.3-57.24Zm14.11,35.55l-5.32-20.15-5.32,20.15h10.64Z"/>
        <path class="uuid-33a70afa-f210-4aa5-a7aa-6ddf02d57528" d="M121,341.95c0-3.49,.66-6.92,1.98-10.28,1.32-3.36,3.24-6.41,5.76-9.15,2.53-2.74,5.6-4.93,9.23-6.57,3.63-1.64,7.73-2.46,12.29-2.46,5.48,0,10.26,1.14,14.35,3.43,4.08,2.29,7.12,5.31,9.11,9.07l-12.01,8.55c-.7-1.88-1.71-3.33-3.02-4.35-1.32-1.02-2.74-1.73-4.27-2.14-1.53-.4-3.02-.6-4.47-.6-2.26,0-4.21,.44-5.84,1.33-1.64,.89-2.98,2.05-4.03,3.51s-1.83,3.06-2.34,4.84c-.51,1.77-.77,3.55-.77,5.32,0,1.99,.29,3.9,.89,5.72,.59,1.83,1.45,3.45,2.58,4.88,1.13,1.42,2.51,2.54,4.15,3.34,1.64,.81,3.48,1.21,5.52,1.21,1.45,0,2.93-.23,4.43-.68,1.5-.46,2.87-1.2,4.11-2.22,1.24-1.02,2.18-2.39,2.82-4.11l12.82,7.66c-1.13,2.79-3.01,5.19-5.64,7.17-2.63,1.99-5.62,3.51-8.95,4.55-3.33,1.05-6.64,1.57-9.92,1.57-4.25,0-8.13-.85-11.65-2.54-3.52-1.69-6.56-3.95-9.11-6.77-2.55-2.82-4.53-5.99-5.92-9.51-1.4-3.52-2.1-7.11-2.1-10.76Z"/>
        <path class="uuid-33a70afa-f210-4aa5-a7aa-6ddf02d57528" d="M220.64,357.43v13.7h-40.79v-57.24h40.06v13.7h-24.34v8.06h20.8v12.74h-20.8v9.03h25.07Z"/>
        <path class="uuid-33a70afa-f210-4aa5-a7aa-6ddf02d57528" d="M227.97,371.13v-57.24h22.01c6.34,0,11.65,1.28,15.92,3.83,4.27,2.55,7.5,5.99,9.67,10.32,2.18,4.33,3.26,9.12,3.26,14.39,0,5.8-1.2,10.86-3.59,15.15-2.39,4.3-5.75,7.63-10.08,10-4.33,2.37-9.39,3.55-15.2,3.55h-22.01Zm34.91-28.7c0-2.95-.51-5.55-1.53-7.78-1.02-2.23-2.5-3.96-4.43-5.2-1.93-1.24-4.25-1.85-6.93-1.85h-6.29v29.83h6.29c2.74,0,5.06-.64,6.97-1.93,1.91-1.29,3.37-3.08,4.39-5.36,1.02-2.28,1.53-4.85,1.53-7.7Z"/>
        <path class="uuid-33a70afa-f210-4aa5-a7aa-6ddf02d57528" d="M311.48,371.54c-4.35,0-8.3-.82-11.85-2.46-3.55-1.64-6.6-3.84-9.15-6.61-2.55-2.77-4.51-5.88-5.88-9.35-1.37-3.47-2.06-7.05-2.06-10.76s.73-7.44,2.18-10.88c1.45-3.44,3.48-6.52,6.09-9.23,2.61-2.71,5.7-4.85,9.27-6.41,3.57-1.56,7.48-2.34,11.73-2.34s8.3,.82,11.85,2.46c3.55,1.64,6.58,3.86,9.11,6.65,2.53,2.79,4.47,5.92,5.84,9.39,1.37,3.47,2.06,7.03,2.06,10.68s-.71,7.36-2.14,10.8c-1.42,3.44-3.44,6.52-6.05,9.23-2.61,2.71-5.68,4.86-9.23,6.45-3.55,1.59-7.47,2.38-11.77,2.38Zm-12.98-29.02c0,1.93,.27,3.8,.81,5.6,.54,1.8,1.34,3.41,2.42,4.84,1.07,1.42,2.43,2.55,4.07,3.39,1.64,.83,3.59,1.25,5.84,1.25s4.22-.43,5.88-1.29c1.67-.86,3.02-2.03,4.07-3.51,1.05-1.48,1.83-3.12,2.34-4.92,.51-1.8,.77-3.64,.77-5.52s-.27-3.79-.81-5.56c-.54-1.77-1.34-3.37-2.42-4.8-1.08-1.42-2.45-2.54-4.11-3.34-1.67-.81-3.6-1.21-5.8-1.21s-4.21,.43-5.84,1.29c-1.64,.86-3,2-4.07,3.43-1.08,1.42-1.87,3.04-2.38,4.84-.51,1.8-.77,3.64-.77,5.52Z"/>
        <path class="uuid-33a70afa-f210-4aa5-a7aa-6ddf02d57528" d="M363.08,343v28.13h-15.72v-57.24h12.25l22.97,29.1v-29.1h15.72v57.24h-12.5l-22.73-28.13Z"/>
        <path class="uuid-33a70afa-f210-4aa5-a7aa-6ddf02d57528" d="M408.14,371.13v-57.24h15.72v57.24h-15.72Z"/>
        <path class="uuid-33a70afa-f210-4aa5-a7aa-6ddf02d57528" d="M446.91,313.9h17.57l18.22,57.24h-15.96l-2.96-11.21h-16.17l-2.96,11.21h-16.04l18.3-57.24Zm14.11,35.55l-5.32-20.15-5.32,20.15h10.64Z"/>
        <path class="uuid-33a70afa-f210-4aa5-a7aa-6ddf02d57528" d="M503.18,343v28.13h-15.72v-57.24h12.25l22.97,29.1v-29.1h15.72v57.24h-12.5l-22.73-28.13Z"/>
        <path class="uuid-33a70afa-f210-4aa5-a7aa-6ddf02d57528" d="M38.53,429.42c-1.83-1.07-3.49-1.95-5-2.62-1.51-.67-3.14-1.28-4.92-1.81-1.77-.54-3.52-.81-5.24-.81-1.34,0-2.45,.21-3.3,.64-.86,.43-1.29,1.15-1.29,2.16,0,.96,.43,1.73,1.29,2.32,.86,.59,2.08,1.12,3.67,1.6,1.58,.48,3.48,1.06,5.68,1.76,3.55,1.07,6.61,2.29,9.19,3.67,2.58,1.39,4.57,3.16,5.97,5.31,1.4,2.16,2.1,5.02,2.1,8.59s-.62,6.27-1.85,8.59c-1.24,2.32-2.9,4.17-5,5.55-2.1,1.39-4.43,2.38-7.01,3s-5.21,.92-7.9,.92-5.6-.28-8.59-.85c-2.98-.56-5.87-1.34-8.67-2.34-2.8-.99-5.35-2.16-7.66-3.51l6.77-13.78c2.15,1.29,4.11,2.34,5.88,3.14,1.77,.81,3.75,1.53,5.92,2.18,2.18,.65,4.37,.97,6.57,.97,1.72,0,2.91-.22,3.59-.65,.67-.44,1.01-1.01,1.01-1.73,0-1.12-.59-1.99-1.77-2.6-1.18-.61-2.73-1.2-4.63-1.76-1.91-.56-4.02-1.21-6.33-1.96-3.33-1.12-6.07-2.39-8.22-3.8-2.15-1.41-3.74-3.09-4.76-5.04-1.02-1.95-1.53-4.31-1.53-7.09,0-4.22,.99-7.74,2.98-10.57,1.99-2.83,4.61-4.98,7.86-6.45,3.25-1.47,6.76-2.2,10.52-2.2,2.79,0,5.49,.34,8.1,1.01,2.61,.67,5.05,1.49,7.34,2.46,2.28,.97,4.28,1.88,6.01,2.74l-6.77,12.98Z"/>
        <path class="uuid-33a70afa-f210-4aa5-a7aa-6ddf02d57528" d="M98.19,424.34h-16.44v43.53h-15.72v-43.53h-16.53v-13.7h48.69v13.7Z"/>
        <path class="uuid-33a70afa-f210-4aa5-a7aa-6ddf02d57528" d="M128.82,468.27c-4.35,0-8.3-.82-11.85-2.46-3.55-1.64-6.6-3.84-9.15-6.61-2.55-2.77-4.51-5.88-5.88-9.35-1.37-3.47-2.06-7.05-2.06-10.76s.73-7.44,2.18-10.88c1.45-3.44,3.48-6.52,6.09-9.23,2.61-2.71,5.7-4.85,9.27-6.41,3.57-1.56,7.48-2.34,11.73-2.34s8.3,.82,11.85,2.46c3.55,1.64,6.58,3.86,9.11,6.65,2.53,2.79,4.47,5.92,5.84,9.39,1.37,3.47,2.06,7.03,2.06,10.68s-.71,7.36-2.14,10.8c-1.42,3.44-3.44,6.52-6.05,9.23-2.61,2.71-5.68,4.86-9.23,6.45-3.55,1.59-7.47,2.38-11.77,2.38Zm-12.98-29.02c0,1.93,.27,3.8,.81,5.6,.54,1.8,1.34,3.41,2.42,4.84,1.07,1.42,2.43,2.55,4.07,3.39,1.64,.83,3.59,1.25,5.84,1.25s4.22-.43,5.88-1.29c1.67-.86,3.02-2.03,4.07-3.51,1.05-1.48,1.83-3.12,2.34-4.92,.51-1.8,.77-3.64,.77-5.52s-.27-3.79-.81-5.56c-.54-1.77-1.34-3.37-2.42-4.8-1.08-1.42-2.45-2.54-4.11-3.34-1.67-.81-3.6-1.21-5.8-1.21s-4.21,.43-5.84,1.29c-1.64,.86-3,2-4.07,3.43-1.08,1.42-1.87,3.04-2.38,4.84-.51,1.8-.77,3.64-.77,5.52Z"/>
        <path class="uuid-33a70afa-f210-4aa5-a7aa-6ddf02d57528" d="M161.55,438.69c0-3.49,.66-6.92,1.98-10.28,1.32-3.36,3.24-6.41,5.76-9.15,2.53-2.74,5.6-4.93,9.23-6.57,3.63-1.64,7.73-2.46,12.29-2.46,5.48,0,10.26,1.14,14.35,3.43,4.08,2.29,7.12,5.31,9.11,9.07l-12.01,8.55c-.7-1.88-1.71-3.33-3.02-4.35-1.32-1.02-2.74-1.73-4.27-2.14-1.53-.4-3.02-.6-4.47-.6-2.26,0-4.21,.44-5.84,1.33-1.64,.89-2.98,2.05-4.03,3.51s-1.83,3.06-2.34,4.84c-.51,1.77-.77,3.55-.77,5.32,0,1.99,.29,3.9,.89,5.72,.59,1.83,1.45,3.45,2.58,4.88,1.13,1.42,2.51,2.54,4.15,3.34,1.64,.81,3.48,1.21,5.52,1.21,1.45,0,2.93-.23,4.43-.68,1.5-.46,2.87-1.2,4.11-2.22,1.24-1.02,2.18-2.39,2.82-4.11l12.82,7.66c-1.13,2.79-3.01,5.19-5.64,7.17-2.63,1.99-5.62,3.51-8.95,4.55-3.33,1.05-6.64,1.57-9.92,1.57-4.25,0-8.13-.85-11.65-2.54-3.52-1.69-6.56-3.95-9.11-6.77-2.55-2.82-4.53-5.99-5.92-9.51-1.4-3.52-2.1-7.11-2.1-10.76Z"/>
        <path class="uuid-33a70afa-f210-4aa5-a7aa-6ddf02d57528" d="M220.39,467.87v-57.24h15.72v21.77l17.41-21.77h17.73l-20.8,25.63,22.25,31.6h-18.06l-14.19-21.04-4.35,4.51v16.53h-15.72Z"/>
        <path class="uuid-33a70afa-f210-4aa5-a7aa-6ddf02d57528" d="M310.68,429.42c-1.83-1.07-3.49-1.95-5-2.62-1.51-.67-3.14-1.28-4.92-1.81-1.77-.54-3.52-.81-5.24-.81-1.34,0-2.45,.21-3.3,.64-.86,.43-1.29,1.15-1.29,2.16,0,.96,.43,1.73,1.29,2.32,.86,.59,2.08,1.12,3.67,1.6,1.58,.48,3.48,1.06,5.68,1.76,3.55,1.07,6.61,2.29,9.19,3.67,2.58,1.39,4.57,3.16,5.97,5.31,1.4,2.16,2.1,5.02,2.1,8.59s-.62,6.27-1.85,8.59c-1.24,2.32-2.9,4.17-5,5.55-2.1,1.39-4.43,2.38-7.01,3s-5.21,.92-7.9,.92-5.6-.28-8.59-.85c-2.98-.56-5.87-1.34-8.67-2.34-2.8-.99-5.35-2.16-7.66-3.51l6.77-13.78c2.15,1.29,4.11,2.34,5.88,3.14,1.77,.81,3.75,1.53,5.92,2.18,2.18,.65,4.37,.97,6.57,.97,1.72,0,2.91-.22,3.59-.65,.67-.44,1.01-1.01,1.01-1.73,0-1.12-.59-1.99-1.77-2.6-1.18-.61-2.73-1.2-4.63-1.76-1.91-.56-4.02-1.21-6.33-1.96-3.33-1.12-6.07-2.39-8.22-3.8-2.15-1.41-3.74-3.09-4.76-5.04-1.02-1.95-1.53-4.31-1.53-7.09,0-4.22,.99-7.74,2.98-10.57,1.99-2.83,4.61-4.98,7.86-6.45,3.25-1.47,6.76-2.2,10.52-2.2,2.79,0,5.49,.34,8.1,1.01,2.61,.67,5.05,1.49,7.34,2.46,2.28,.97,4.28,1.88,6.01,2.74l-6.77,12.98Z"/>
        <path class="uuid-33a70afa-f210-4aa5-a7aa-6ddf02d57528" d="M354.69,410.63h17.57l18.22,57.24h-15.96l-2.96-11.21h-16.17l-2.96,11.21h-16.04l18.3-57.24Zm14.11,35.55l-5.32-20.15-5.32,20.15h10.64Z"/>
        <path class="uuid-33a70afa-f210-4aa5-a7aa-6ddf02d57528" d="M410.96,439.73v28.13h-15.72v-57.24h12.25l22.97,29.1v-29.1h15.72v57.24h-12.5l-22.73-28.13Z"/>
        <path class="uuid-33a70afa-f210-4aa5-a7aa-6ddf02d57528" d="M469.24,410.63h17.57l18.22,57.24h-15.96l-2.96-11.21h-16.17l-2.96,11.21h-16.04l18.3-57.24Zm14.11,35.55l-5.32-20.15-5.32,20.15h10.64Z"/>
        <path class="uuid-33a70afa-f210-4aa5-a7aa-6ddf02d57528" d="M509.79,467.87v-57.24h15.72v43.53h25.96v13.7h-41.68Z"/>
        <path class="uuid-33a70afa-f210-4aa5-a7aa-6ddf02d57528" d="M560.82,410.63l10.24,23.38,10.48-23.38h17.09l-19.75,38.29v18.94h-15.64v-19.11l-19.43-38.13h17.01Z"/>
        <path class="uuid-33a70afa-f210-4aa5-a7aa-6ddf02d57528" d="M600.16,456.18l25.96-31.84h-24.75v-13.7h43.69v11.69l-24.34,31.84h24.83v13.7h-45.39v-11.69Z"/>
        <path class="uuid-33a70afa-f210-4aa5-a7aa-6ddf02d57528" d="M693.83,454.16v13.7h-40.79v-57.24h40.06v13.7h-24.34v8.06h20.8v12.74h-20.8v9.03h25.07Z"/>
        <path class="uuid-33a70afa-f210-4aa5-a7aa-6ddf02d57528" d="M701.16,467.87v-57.24h26.28c2.79,0,5.37,.56,7.74,1.69,2.36,1.13,4.41,2.65,6.13,4.55,1.72,1.91,3.05,4.04,3.99,6.41,.94,2.36,1.41,4.76,1.41,7.17,0,2.2-.32,4.33-.97,6.37-.65,2.04-1.59,3.91-2.82,5.6-1.24,1.69-2.71,3.16-4.43,4.39l12.09,21.04h-17.25l-10.08-17.57h-6.37v17.57h-15.72Zm15.72-31.28h9.92c.64,0,1.26-.24,1.85-.73,.59-.48,1.09-1.18,1.49-2.1,.4-.91,.6-2.01,.6-3.3s-.23-2.46-.68-3.35c-.46-.89-1.02-1.57-1.69-2.05-.67-.48-1.33-.73-1.97-.73h-9.51v12.25Z"/>
      </g>
      <rect class="uuid-33a70afa-f210-4aa5-a7aa-6ddf02d57528" x="573.13" y="327.76" width="178.21" height="29.7"/>
    </g>
  </g>
</svg>